<svg xmlns="http://www.w3.org/2000/svg" width="60.55" height="54.27" fill="none" viewBox="82 38 60.55 54.27"><defs><mask id="a" width="4" height="7" x="120" y="71" maskUnits="userSpaceOnUse" style="mask-type:luminance"><g clip-path="url(#clip1_1_2)"><path fill="#fff" d="M120.614 71.644h3.348v6.195h-3.348z"/><path fill="#000" d="M123.308 72.909c-.259.183-.365.368-.475.5-.301.358-.541.195-.739.48-.169.244-.115.539-.015 1.09.071.387.155.838.341.86.137.015.264-.202.499-.607.203-.348.316-.634.433-.933.184-.466.215-.647.228-.727.012-.08.102-.673-.069-.739-.037-.014-.083-.004-.203.08z"/></g></mask><mask id="b" width="30" height="33" x="97" y="47" maskUnits="userSpaceOnUse" style="mask-type:luminance"><path fill="#fff" d="M97.139 47.852h29.527v32.141H97.137z"/><path fill="#000" d="M108.102 55.632c-.26.139-2.626 1.453-2.553 3.847.032 1.043.534 2.506 1.659 3.005 1.398.622 2.585-.763 3.649-.024.834.578.927 1.997.957 2.465.046.719-.074 1.143-.14 1.609-.239 1.714.314 4.422 1.772 4.851 1.295.38 3.257-1.048 3.355-2.287.037-.45-.181-.792.056-1.206.34-.593 1.057-.364 1.381-.841.509-.749-.869-1.868-.439-2.862.304-.698 1.111-.446 1.995-1.412.641-.7 1.052-1.745.744-2.08-.353-.38-1.287.6-2.122.23-1.375-.612-.472-3.482-2.075-4.389-.514-.29-1.593-.553-2.454-.185-.243.105-.363.212-.678.278-.732.151-1.633-.114-1.757-.573-.088-.322.274-.502.188-.724-.174-.444-2.043-.507-3.541.293z"/></mask></defs><path fill="#007549" d="M92.59 47.24c.17 0 .244-.17.244-.243 0-.147-.171-.317-.245-.244l-1.346.146v.244c.514-.146.93 0 1.346.097M92.051 48.02c.171 0 .245-.17.245-.243 0-.146-.074-.244-.245-.244l-1.346.244v.244c.514-.195.906-.074 1.346 0M91.562 48.825c.17 0 .244-.17.244-.244 0-.17-.171-.244-.318-.244l-1.346.317.074.171c.538-.22.93-.073 1.346 0M90.999 49.703c.171 0 .244-.073.244-.244-.073-.17-.17-.244-.318-.244l-1.346.39.074.17c.465-.145.954-.097 1.346-.072M90.534 50.556c.073 0 .171-.146.171-.317 0-.073-.171-.17-.318-.17l-1.272.56.073.17a3 3 0 0 1 1.346-.243M89.898 51.604c.073 0 .17-.17.17-.243 0-.147-.17-.244-.317-.244l-1.273.56.074.171c.465-.22.905-.292 1.345-.244M89.482 52.555c.17 0 .244-.17.17-.317 0-.073-.17-.146-.317-.146l-1.273.488.074.243c.489-.243.905-.317 1.346-.268M89.163 53.506c.172-.073.245-.17.172-.317 0-.17-.172-.244-.318-.17l-1.273.487.073.146c.49-.146.882-.195 1.346-.146M88.845 54.384c.074-.074.172-.244.074-.39 0-.074-.147-.171-.318-.171l-1.2.634.074.17c.514-.22.905-.292 1.37-.244M88.454 55.407c.171 0 .244-.146.171-.316 0-.074-.171-.171-.318-.074l-1.2.634.074.146c.416-.219.881-.292 1.273-.39M88.136 56.529c.17 0 .244-.17.17-.317-.072-.073-.17-.17-.317-.17l-1.2.706.074.17c.416-.218.881-.316 1.273-.39M93.324 46.436c.073 0 .244-.073.244-.244s-.171-.243-.318-.243l-1.346.243v.17c.538-.17.979 0 1.42.074M93.96 45.656c.073 0 .245-.073.245-.244-.074-.17-.172-.244-.319-.244l-1.346.244v.17c.514-.097.955-.097 1.42.074M94.67 44.925c.17 0 .244-.171.244-.317 0-.074-.073-.244-.245-.244l-1.346.244v.146c.514-.098.93.073 1.346.17M95.232 44.047c.171-.073.245-.17.245-.317 0-.17-.171-.244-.318-.244l-1.273.39v.244c.49-.244.906-.122 1.346-.073M93.47 42.95c0-.147-.171-.244-.318-.147-.171 0-.245.147-.171.318l.49 1.267.17-.073c-.195-.488-.17-.926-.17-1.365M92.76 43.51c0-.073-.17-.17-.318-.17-.073 0-.17.17-.17.317l.489 1.268h.171a3.2 3.2 0 0 1-.171-1.414M92.051 44.218c0-.147-.171-.244-.318-.147-.171 0-.245.147-.171.317l.636 1.512h.171c-.27-.585-.293-1.17-.318-1.682M91.415 44.925c-.074-.171-.245-.244-.318-.244-.172.073-.245.17-.245.317l.636 1.584.171-.073c-.342-.536-.269-1.097-.244-1.584M90.779 45.558c0-.17-.172-.17-.319-.17-.073.073-.17.17-.17.317l.709 1.511h.171c-.245-.56-.44-1.097-.392-1.658M90.044 46.436a.44.44 0 0 0-.318-.146c-.171.073-.245.243-.171.39l.71 1.511.17-.073c-.244-.585-.415-1.097-.39-1.682M89.408 47.387c0-.147-.171-.147-.318-.147-.073.074-.171.244-.171.317l.71 1.512.17-.073c-.244-.561-.415-1.073-.39-1.61M88.845 48.191c0-.073-.171-.17-.318-.073-.073 0-.147.146-.073.317l.807 1.438.172-.073c-.294-.56-.514-1.072-.588-1.609M88.43 49.045c-.074-.171-.245-.171-.319-.171-.147.073-.245.244-.147.39l.808 1.438.245-.073c-.367-.536-.612-1.024-.588-1.584M87.818 49.922c-.074-.073-.245-.146-.319-.073-.17.073-.17.244-.073.39l.954 1.34.147-.072c-.318-.512-.612-1.024-.71-1.585M87.426 50.897c-.073-.073-.245-.146-.318-.073-.171.073-.245.244-.171.317l.954 1.439.171-.074c-.318-.56-.563-1.072-.636-1.609M87.034 51.604c-.073-.073-.244-.17-.318-.073-.171.073-.171.244-.073.39l1.028 1.268.171-.073c-.416-.512-.71-.975-.808-1.512M86.618 52.384c-.073-.17-.244-.17-.318-.073-.171.073-.171.244-.073.317l1.126 1.268.17-.073c-.464-.415-.684-.975-.905-1.439M86.374 53.189c-.074-.073-.245-.073-.318 0-.172.073-.172.244-.074.317l1.028 1.267.171-.073c-.391-.512-.685-.95-.807-1.511M85.982 54.31c-.073-.17-.245-.17-.391-.073-.074.073-.074.244 0 .39l1.125 1.195.172-.147c-.465-.414-.686-.95-.906-1.365M85.664 55.261c-.073-.073-.245-.073-.318 0s-.171.244-.074.317l1.2 1.268.17-.17c-.415-.44-.758-.879-.978-1.415M85.42 56.529c-.172-.073-.319-.17-.392 0-.074.073-.074.244 0 .317l1.199 1.194.147-.17c-.44-.44-.832-.805-.955-1.341M85.273 57.87c-.074-.073-.245-.147-.392 0-.073.073-.073.243 0 .317l1.199 1.194.171-.146c-.49-.39-.758-.951-.979-1.365M85.028 59.381c-.074-.073-.245-.073-.392 0-.073.073-.073.244 0 .317l1.2 1.195.146-.074c-.44-.487-.832-.877-.954-1.438M84.881 60.893c-.073-.074-.245-.171-.318 0-.074.073-.147.243 0 .316l1.199 1.122.171-.073c-.465-.439-.832-.854-1.052-1.365M84.881 62.404c-.171-.17-.318-.17-.392-.073-.073.146-.073.317 0 .39l1.273 1.024.171-.073c-.538-.341-.807-.853-1.052-1.268M84.783 63.745c-.171-.073-.318-.073-.392 0-.073.146-.073.317.074.39l1.444.878.073-.171c-.514-.268-.856-.707-1.199-1.097M84.881 65.183a.35.35 0 0 0-.392.073c-.073.147 0 .317.074.39l1.517.707.073-.146c-.587-.292-1.027-.512-1.272-1.024M85.028 66.597a.35.35 0 0 0-.392.073.35.35 0 0 0 .074.39l1.517.707.073-.146c-.563-.268-1.003-.512-1.272-1.024M85.2 68.036a.35.35 0 0 0-.392.073c0 .17 0 .317.17.317l1.592.56.073-.146c-.563-.22-1.101-.439-1.444-.804M85.346 69.157c-.171-.073-.318 0-.318.17-.074.074 0 .245.073.318l1.59.56.074-.17c-.538-.244-1.028-.488-1.42-.878M85.59 70.18c-.17-.072-.244 0-.318.147-.073.073 0 .244.074.317l1.59.56.074-.17c-.538-.22-1.028-.439-1.42-.853M85.835 71.059a.35.35 0 0 0-.391.073c0 .17 0 .317.073.39l1.836.95.17-.17c-.635-.366-1.32-.707-1.688-1.243M87.89 57.724c.172-.074.172-.244.172-.39-.073-.074-.245-.171-.391-.074l-1.444.878.073.17c.514-.414 1.102-.487 1.59-.584M87.67 58.894c.074-.074.172-.244.074-.317-.073-.171-.245-.171-.318-.073l-1.346 1.023.073.147c.49-.366.955-.658 1.518-.78M87.573 60.259c.171-.073.171-.244.073-.317-.073-.17-.245-.17-.318-.073l-1.346 1.024.074.146c.514-.366.978-.683 1.517-.78M87.426 61.6c.171-.074.171-.244.073-.39-.073-.074-.244-.074-.391 0l-1.2 1.12.074.147c.44-.439 1.004-.658 1.444-.877M87.353 62.965c.17-.073.17-.244.073-.317-.073-.17-.245-.17-.318-.073l-1.273 1.194.172.171c.391-.414.88-.707 1.346-.975M87.426 64.135c.171-.073.171-.244 0-.39-.073-.073-.245-.073-.318 0l-1.126 1.268.147.17c.367-.512.88-.804 1.297-1.048"/><path fill="#007549" d="M87.5 65.256c.073-.073.073-.243 0-.39-.074-.073-.245-.073-.319 0l-1.125 1.268.073.17c.465-.511.807-.901 1.37-1.048M87.573 66.524c.073-.073.073-.244 0-.317-.074-.146-.245-.073-.392 0l-.954 1.341.147.073c.342-.463.807-.78 1.199-1.097M87.818 67.646c.073-.171.073-.317 0-.39-.172-.074-.319-.074-.392.073l-.881 1.438.171.073c.27-.512.734-.878 1.102-1.195M88.454 70.18c.073-.17.073-.316-.074-.39-.073-.072-.244-.072-.318.074l-.88 1.438.17.073c.319-.536.612-.95 1.102-1.194M89.017 71.376a.35.35 0 0 0-.074-.39.35.35 0 0 0-.391.073l-.808 1.657.171.074c.294-.61.563-1.122 1.102-1.414M88.136 68.743a.35.35 0 0 0-.074-.39c-.171-.074-.318 0-.318.073l-.88 1.657.17.074c.245-.561.71-1.024 1.102-1.414"/><path fill="#007549" d="M94.523 43.023c-4.772 4.68-7.807 10.312-8.688 16.431-.88 6.193.49 12.458 3.916 18.114.073.146.244.146.391.073s.147-.244.074-.317c-3.353-5.558-4.699-11.677-3.818-17.797.881-5.948 3.744-11.604 8.443-16.114.171-.073.171-.244 0-.39-.098-.073-.245-.073-.318 0M131.963 47.24c-.171 0-.244-.17-.244-.243 0-.147.073-.317.244-.244l1.346.146v.244c-.514-.146-.905 0-1.346.097M132.526 48.02c-.171 0-.245-.17-.245-.243 0-.146.074-.244.245-.244l1.346.244v.244c-.514-.195-.93-.074-1.346 0M132.991 48.825c-.171 0-.245-.17-.245-.244 0-.17.172-.244.319-.244l1.345.317-.073.171c-.514-.22-.905-.073-1.346 0M133.554 49.703c-.171 0-.245-.073-.245-.244.074-.17.172-.244.318-.244l1.346.39-.073.17c-.465-.145-.954-.097-1.346-.072M134.043 50.556c-.073 0-.244-.146-.171-.317 0-.073.171-.17.318-.17l1.273.56-.074.17c-.489-.194-.905-.267-1.346-.243M134.68 51.604c-.074 0-.245-.17-.172-.243 0-.147.172-.244.318-.244l1.273.56-.073.171c-.49-.22-.906-.292-1.346-.244M135.071 52.555c-.171 0-.245-.17-.171-.317 0-.073.171-.146.318-.146l1.273.488-.074.243a2.27 2.27 0 0 0-1.346-.268M135.389 53.506c-.171-.073-.244-.17-.171-.317 0-.17.171-.244.318-.17l1.273.487-.074.146c-.465-.146-.881-.195-1.346-.146M135.707 54.384c-.073-.074-.146-.244-.073-.39 0-.074.147-.171.318-.171l1.199.634-.073.17c-.49-.22-.881-.292-1.371-.244M136.026 55.407c-.074 0-.172-.146-.074-.316 0-.074.171-.171.318-.074l1.199.634-.073.146c-.465-.195-.906-.34-1.37-.39M136.491 56.602c-.172 0-.294-.244-.221-.414.074-.074.172-.171.318-.171l1.199.707-.073.17c-.416-.194-.832-.194-1.223-.292M131.254 46.436c-.074 0-.245-.073-.245-.244s.171-.243.318-.243l1.346.243v.17c-.563-.17-.979 0-1.419.074M130.617 45.656c-.073 0-.244-.073-.244-.244s.171-.244.318-.244l1.346.244v.17c-.563-.17-1.004-.024-1.42.074M129.883 44.925c-.171 0-.318-.171-.244-.317 0-.074.073-.244.244-.244l1.346.244v.146c-.489-.098-.905.073-1.346.17M129.345 44.047c-.171-.073-.245-.17-.245-.317 0-.17.172-.244.318-.244l1.273.39v.244c-.514-.244-.93-.122-1.346-.073M130.642 43.096c-.049-.146.098-.268.269-.22.147-.048.269.098.22.269l-.171 1.34-.171-.048c.098-.488-.049-.902-.147-1.34M131.816 43.51c0-.073.172-.17.319-.17.073 0 .171.17.171.317l-.49 1.268h-.171c.147-.488.22-.976.171-1.414M132.526 44.218c0-.147.171-.244.318-.147.172 0 .172.147.172.317l-.637 1.512h-.171c.269-.585.269-1.195.318-1.682M133.162 44.925c.074-.171.172-.244.319-.244.171.073.244.17.244.317l-.636 1.584-.171-.073c.318-.56.244-1.097.244-1.584M133.799 45.558c0-.17.171-.17.318-.17.073.073.171.17.171.317l-.71 1.511h-.171c.245-.56.416-1.097.392-1.658M134.508 46.436a.44.44 0 0 1 .318-.146c.172.073.245.243.172.39-.074.073-.172.146-.245.146l-.489 1.34-.172-.072.49-1.341c-.074-.073-.147-.146-.074-.317M135.145 47.387c0-.147.171-.147.318-.147.073.074.171.244.171.317l-.71 1.512-.244-.073c.293-.561.489-1.073.465-1.61M135.707 48.191c0-.073.172-.17.319-.073.073 0 .146.146.073.317l-.808 1.438-.146-.097c.269-.536.489-1.048.562-1.585M136.27 49.215c.074-.146.245-.146.318-.146.172.073.245.244.172.39l-.808 1.438-.245-.073c.343-.56.588-1.048.563-1.609M136.735 49.922c.074-.073.245-.146.318-.073.172.073.172.244.074.39l-.955 1.34-.146-.072c.342-.512.636-1.024.709-1.585M137.151 50.897c.074-.073.245-.146.318-.073.147.073.147.244.147.317l-.954 1.439-.171-.074c.318-.56.562-1.072.66-1.609M137.543 51.604c.073-.073.244-.17.318-.073.171.073.171.244.073.39l-1.027 1.268-.172-.073c.392-.512.71-.975.808-1.512M137.934 52.384c.074-.17.245-.17.318-.073.147.073.147.244.074.317l-1.126 1.268-.171-.073c.465-.415.71-.975.905-1.439M138.179 53.189c.073-.073.245-.073.318 0 .171.073.171.244.074.317l-1.028 1.267-.172-.073c.392-.512.71-.95.808-1.511M138.571 54.31c.073-.17.244-.17.391-.073.074.073.074.244 0 .39l-1.126 1.195-.171-.147c.49-.414.71-.95.906-1.365M138.889 55.261c.073-.073.244-.073.318 0 .073.073.171.244.073.317l-1.199 1.268-.171-.17c.44-.44.783-.879.979-1.415M139.133 56.529c.074-.073.245-.17.392 0 .073.073.073.244 0 .317l-1.199 1.194-.147-.17c.465-.44.832-.805.954-1.341M139.305 57.87c.073-.073.244-.147.391 0 .074.073.074.243 0 .317l-1.199 1.194-.147-.146c.465-.39.71-.951.955-1.365M139.525 59.381c.073-.073.245-.073.391 0 .074.073.074.244 0 .317l-1.199 1.195-.171-.074c.49-.487.857-.877.979-1.438M139.696 60.893c.074-.074.245-.171.318 0 .074.073.172.243 0 .316l-1.199 1.122-.171-.073c.465-.439.832-.854 1.052-1.365M139.696 62.404c.147-.17.318-.17.392-.073.073.146.073.317 0 .39l-1.273 1.024-.171-.073c.514-.341.832-.902 1.052-1.268M139.77 63.745c.171-.073.318-.073.391 0 .074.146 0 .317-.073.39l-1.444.878-.171-.171c.562-.244.954-.707 1.297-1.097M139.696 65.183c.147-.073.318 0 .392.073.073.147 0 .317-.074.39l-1.517.707-.073-.146c.563-.292 1.003-.512 1.272-1.024M139.525 66.597a.35.35 0 0 1 .391.073c0 .171 0 .317-.073.39l-1.517.707-.147-.146c.612-.268 1.077-.512 1.346-1.024M139.378 68.036a.35.35 0 0 1 .392.073c0 .17 0 .317-.172.317l-1.59.56-.074-.146c.563-.22 1.077-.439 1.444-.804M139.207 69.157c.171-.073.318 0 .318.17.073.074 0 .245-.073.318l-1.591.56-.074-.17c.539-.244 1.028-.488 1.42-.878M138.987 70.18c.073-.072.244 0 .318.147.073.073 0 .244-.074.317l-1.59.56-.074-.17c.514-.22 1.028-.439 1.42-.853M138.742 71.059c.171-.073.318 0 .318.073.073.17.073.317 0 .39l-1.835.95-.172-.17c.637-.366 1.297-.707 1.689-1.243M136.662 57.724c-.171-.074-.171-.244-.171-.39.073-.074.244-.171.391-.074l1.444.878-.074.17c-.489-.414-1.076-.487-1.59-.584M136.907 58.894c-.074-.074-.172-.244-.074-.317.074-.171.245-.171.318-.073l1.346 1.023-.073.147c-.514-.366-.979-.658-1.517-.78M136.98 60.259c-.171-.073-.171-.244-.074-.317.074-.17.245-.17.319-.073l1.346 1.024-.074.146c-.465-.39-1.052-.585-1.517-.78M137.151 61.6c-.171-.074-.171-.244-.073-.39.073-.074.245-.074.391 0 .074.073.074.17.074.243l1.125.878-.073.146-1.199-.877c-.098.073-.171.073-.245 0M137.151 62.965c-.073-.073-.073-.244 0-.317.074-.17.245-.17.318-.073l1.273 1.194-.171.147c-.441-.415-.881-.756-1.42-.951M137.151 64.135c-.171-.073-.171-.244 0-.39.074-.073.245-.073.318 0l1.126 1.268-.171.17c-.343-.512-.881-.804-1.273-1.048"/><path fill="#007549" d="M137.078 65.256c-.074-.073-.074-.243 0-.39.073-.073.245-.073.318 0l1.126 1.268-.074.17c-.465-.511-.832-.901-1.37-1.048M136.98 66.524c-.073-.073-.073-.244 0-.317.073-.146.245-.073.318 0l1.028 1.341-.147.073c-.318-.463-.783-.78-1.199-1.097M136.735 67.646c-.073-.171-.073-.317 0-.39.147-.074.318-.074.392.073l.881 1.438-.172.073c-.244-.512-.709-.878-1.101-1.195M136.099 70.18c-.073-.17-.073-.316.073-.39.074-.072.245-.072.319.074l.88 1.438-.171.073c-.245-.511-.709-.853-1.101-1.194M135.561 71.376a.35.35 0 0 1 .073-.39.35.35 0 0 1 .392.073l.807 1.657-.171.074c-.318-.61-.563-1.122-1.101-1.414M136.417 68.743c-.073-.171-.073-.317.074-.39.073-.074.244 0 .318.073l.881 1.657-.147.074c-.245-.561-.734-1.024-1.126-1.414"/><path fill="#007549" d="M130.055 43.023c4.771 4.68 7.806 10.312 8.687 16.431.881 6.193-.49 12.458-3.916 18.114-.073.146-.318.146-.391.073-.171-.073-.171-.244-.073-.317 3.352-5.558 4.698-11.677 3.817-17.797-.881-5.948-3.744-11.604-8.443-16.114-.171-.073-.171-.244 0-.39.074-.073.245-.073.319 0"/><path fill="#007549" d="M112.166 43.535c-5.359 0-10.375 2.048-14.168 5.778-3.77 3.73-5.85 8.679-5.85 13.92 0 10.849 8.982 19.674 19.994 19.698 11.036 0 20.017-8.825 20.017-19.698v-.024c0-10.849-8.956-19.674-19.993-19.674m0 39.957c-11.354 0-20.58-9.094-20.604-20.259 0-5.412 2.129-10.507 6.02-14.335 3.89-3.827 9.054-5.948 14.56-5.948 11.354 0 20.58 9.093 20.604 20.259v.024c0 11.166-9.225 20.259-20.58 20.259"/><path fill="#c9ab5c" d="M102.353 83.687h1.493c-8.198-3.34-13.997-11.36-14.022-20.698 0-5.973 2.325-11.58 6.558-15.822 4.234-4.217 9.862-6.558 15.858-6.558 12.382 0 22.44 10.02 22.44 22.356v.024c0 5.973-2.35 11.58-6.583 15.798a22.5 22.5 0 0 1-7.39 4.9h1.492c2.325-1.097 4.454-2.609 6.338-4.486 4.356-4.34 6.754-10.093 6.754-16.236v-.025c0-12.652-10.351-22.94-23.051-22.94S89.188 50.312 89.212 62.965c.025 9.142 5.409 17.04 13.141 20.722"/><path fill="#c9ab5c" d="m135.463 74.716-1.077-3.267c-1.933 5.217-5.8 9.58-10.694 12.262v5.437h-.587v.975a29.05 29.05 0 0 0 17.448-19.528zM100.861 89.148V83.71h.049c-4.92-2.608-8.859-6.826-10.792-12.043l-1.028 3.047L84 70.571a29.05 29.05 0 0 0 17.448 19.528v-.976h-.587z"/><path fill="#c9ab5c" d="M100.958 89.05h22.636V83.81h-22.636zm22.856.195h-23.051v-5.631h23.051z"/><path fill="#9d1531" d="M112.289 84.491c-.955 0-1.713.756-1.713 1.707 0 .95.758 1.706 1.713 1.706a1.7 1.7 0 0 0 1.713-1.706c0-.95-.784-1.707-1.713-1.707m0 3.682a1.986 1.986 0 0 1-1.983-1.975c0-1.073.906-1.975 1.983-1.975s1.982.878 1.982 1.975a1.97 1.97 0 0 1-1.982 1.975M118.088 84.491a1.7 1.7 0 0 0-1.713 1.707 1.7 1.7 0 0 0 1.713 1.706c.955 0 1.713-.755 1.713-1.706 0-.95-.758-1.707-1.713-1.707m0 3.682a1.986 1.986 0 0 1-1.982-1.975c0-1.073.906-1.975 1.982-1.975s1.982.878 1.982 1.975a1.97 1.97 0 0 1-1.982 1.975"/><path fill="#9d1531" d="M115.176 84.491a1.7 1.7 0 0 0-1.713 1.707 1.7 1.7 0 0 0 1.713 1.706c.955 0 1.713-.755 1.713-1.706 0-.95-.758-1.707-1.713-1.707m0 3.682a1.986 1.986 0 0 1-1.982-1.975c0-1.073.905-1.975 1.982-1.975s1.982.878 1.982 1.975c.025 1.097-.881 1.975-1.982 1.975M109.377 84.491c-.955 0-1.713.756-1.713 1.707 0 .95.758 1.706 1.713 1.706a1.7 1.7 0 0 0 1.713-1.706 1.7 1.7 0 0 0-1.713-1.707m0 3.682a1.986 1.986 0 0 1-1.983-1.975c0-1.073.906-1.975 1.983-1.975s1.982.878 1.982 1.975c.024 1.097-.881 1.975-1.982 1.975"/><path fill="#9d1531" d="M106.489 84.491a1.7 1.7 0 0 0-1.713 1.707 1.7 1.7 0 0 0 1.713 1.706 1.7 1.7 0 0 0 1.713-1.706c0-.95-.783-1.707-1.713-1.707m0 3.682a1.986 1.986 0 0 1-1.982-1.975c0-1.073.905-1.975 1.982-1.975s1.982.878 1.982 1.975a1.97 1.97 0 0 1-1.982 1.975"/><path fill="#9d1531" d="M103.577 84.491a1.7 1.7 0 0 0-1.713 1.707 1.7 1.7 0 0 0 1.713 1.706 1.7 1.7 0 0 0 1.713-1.706 1.7 1.7 0 0 0-1.713-1.707m0 3.682a1.986 1.986 0 0 1-1.982-1.975c0-1.073.905-1.975 1.982-1.975s1.982.878 1.982 1.975a1.97 1.97 0 0 1-1.982 1.975M121 84.491a1.7 1.7 0 0 0-1.713 1.707A1.7 1.7 0 0 0 121 87.904c.955 0 1.713-.755 1.713-1.706-.024-.95-.783-1.707-1.713-1.707m0 3.682a1.986 1.986 0 0 1-1.982-1.975c0-1.073.881-1.975 1.982-1.975a1.97 1.97 0 0 1 1.982 1.975A1.985 1.985 0 0 1 121 88.173M132.208 88.636h-.269v-.073h.636v.073h-.269v.755h-.098zM133.383 89.026c0-.122-.025-.268 0-.366-.025.098-.074.195-.098.317l-.147.414h-.073l-.147-.39a2 2 0 0 1-.098-.317c0 .098 0 .244-.025.366l-.024.366h-.098l.049-.853h.147l.147.414c.024.098.073.195.073.293.024-.073.049-.171.098-.293l.147-.414h.147l.048.853h-.097z"/><path fill="#9d1531" d="M132.771 87.904c-.612 0-1.126.512-1.126 1.122s.514 1.121 1.126 1.121 1.126-.512 1.126-1.121c-.025-.61-.514-1.122-1.126-1.122m0 2.365c-.685 0-1.248-.56-1.248-1.243s.563-1.243 1.248-1.243 1.248.56 1.248 1.243c-.025.682-.587 1.243-1.248 1.243"/><g mask="url(#a)"><path fill="#c9ab5c" d="M123.33 71.817c-.531.373-.747.755-.974 1.026-.617.734-1.114.4-1.52.985-.347.5-.237 1.104-.029 2.238.147.797.313 1.723.697 1.767.282.032.541-.414 1.026-1.248.418-.717.648-1.302.89-1.921.377-.958.443-1.326.47-1.495.027-.168.211-1.384-.139-1.518-.074-.03-.174-.01-.419.163z"/><path fill="#009739" d="M123.296 72.014c-.47.33-.661.668-.862.907-.545.651-.983.354-1.343.873-.308.441-.211.978-.027 1.98.13.704.279 1.523.617 1.562.249.03.477-.365.905-1.102.37-.634.573-1.15.788-1.697.333-.848.392-1.172.414-1.32.024-.15.186-1.225-.123-1.344-.066-.025-.152-.008-.369.146z"/><path fill="#0072c6" d="M123.264 72.214c-.428.302-.605.612-.786.829-.499.595-.9.324-1.228.797-.282.405-.191.892-.025 1.81.118.643.255 1.391.563 1.428.228.026.438-.334.83-1.01.338-.58.524-1.05.719-1.552.304-.776.358-1.073.38-1.207s.171-1.12-.113-1.229c-.061-.024-.139-.007-.338.134z"/><path fill="#ce1126" d="M123.301 72.26c-.399.28-.561.568-.732.77-.463.552-.835.3-1.14.742-.262.375-.179.829-.022 1.68.11.597.234 1.294.523 1.326.211.024.406-.31.771-.936.313-.54.487-.978.668-1.441.282-.72.333-.997.352-1.122.02-.124.16-1.038-.105-1.14-.056-.022-.129-.008-.315.124z"/><path fill="#fcd116" d="M123.288 72.468c-.347.243-.489.495-.636.672-.404.48-.729.261-.996.647-.227.326-.154.724-.019 1.465.095.522.205 1.126.455 1.155.183.022.355-.27.67-.816.274-.47.424-.851.583-1.256.244-.626.288-.868.306-.977.017-.11.137-.907-.091-.995-.049-.02-.113-.005-.274.107z"/><path fill="#000" d="M123.249 72.643c-.306.217-.431.437-.563.593-.357.424-.643.231-.878.57-.201.29-.137.639-.017 1.292.083.461.181.995.401 1.02.162.019.313-.24.592-.722.243-.415.375-.751.514-1.11.218-.553.255-.765.272-.863.014-.097.122-.8-.081-.877-.044-.017-.1-.005-.242.095z"/></g><g mask="url(#b)"><path fill="#c9ab5c" d="M102.136 49.057c-.507.27-5.134 2.84-4.992 7.526.06 2.043 1.042 4.902 3.242 5.88 2.734 1.216 5.056-1.495 7.138-.049 1.63 1.131 1.814 3.903 1.872 4.822.093 1.407-.144 2.238-.274 3.15-.472 3.352.612 8.65 3.468 9.486 2.533.743 6.367-2.05 6.563-4.471.071-.88-.355-1.55.11-2.36.663-1.158 2.066-.71 2.702-1.646.993-1.465-1.701-3.654-.859-5.597.592-1.365 2.175-.873 3.903-2.76 1.253-1.367 2.058-3.413 1.454-4.066-.688-.746-2.519 1.172-4.148.45-2.692-1.194-.923-6.806-4.06-8.58-1.006-.569-3.115-1.083-4.799-.361-.475.204-.707.417-1.326.543-1.432.295-3.191-.224-3.436-1.119-.174-.631.536-.982.367-1.416-.34-.868-3.994-.995-6.925.57z"/><path fill="#009739" d="M102.755 49.69c-.475.254-4.809 2.66-4.677 7.049.059 1.913.977 4.59 3.037 5.507 2.56 1.138 4.733-1.4 6.686-.047 1.527 1.058 1.698 3.655 1.754 4.515.086 1.32-.137 2.097-.257 2.95-.44 3.14.573 8.099 3.248 8.884 2.371.695 5.963-1.921 6.144-4.186.066-.824-.333-1.453.103-2.209.622-1.085 1.936-.665 2.528-1.54.93-1.373-1.593-3.423-.805-5.244.553-1.28 2.036-.817 3.656-2.584 1.172-1.28 1.926-3.197 1.363-3.808-.646-.698-2.359 1.099-3.884.421-2.52-1.119-.864-6.375-3.803-8.035-.942-.532-2.917-1.014-4.492-.339-.446.19-.664.39-1.244.51-1.341.275-2.988-.21-3.218-1.049-.161-.592.502-.919.343-1.326-.318-.812-3.742-.931-6.485.534z"/><path fill="#0072c6" d="M103.521 50.856c-.436.231-4.405 2.438-4.285 6.455.053 1.753.895 4.206 2.782 5.047 2.347 1.043 4.336-1.283 6.125-.042 1.4.97 1.557 3.35 1.608 4.137.081 1.207-.125 1.921-.235 2.701-.404 2.877.526 7.421 2.976 8.14 2.173.637 5.464-1.76 5.63-3.837.062-.755-.303-1.33.093-2.023.571-.992 1.772-.61 2.318-1.412.851-1.258-1.459-3.135-.737-4.802.507-1.173 1.867-.749 3.348-2.37 1.074-1.172 1.764-2.93 1.248-3.488-.59-.64-2.161 1.006-3.558.385-2.31-1.027-.791-5.841-3.485-7.363-.864-.487-2.674-.928-4.116-.31-.409.176-.607.36-1.138.469-1.228.253-2.738-.193-2.949-.96-.149-.542.461-.844.316-1.215-.291-.743-3.428-.853-5.941.49z"/><path fill="#ce1126" d="M104.673 52.609c-.374.2-3.8 2.101-3.695 5.568.047 1.511.771 3.627 2.401 4.351 2.023.9 3.741-1.104 5.283-.036 1.206.836 1.341 2.889 1.387 3.569.069 1.04-.107 1.655-.203 2.33-.35 2.482.453 6.402 2.567 7.022 1.875.548 4.714-1.52 4.858-3.309.051-.65-.262-1.148.081-1.745.492-.856 1.529-.524 1.999-1.219.734-1.085-1.258-2.704-.636-4.144.438-1.012 1.61-.646 2.887-2.043.928-1.012 1.522-2.526 1.077-3.009-.509-.55-1.865.868-3.069.334-1.992-.885-.682-5.039-3.005-6.35-.744-.422-2.305-.8-3.55-.269-.353.152-.524.31-.982.403-1.059.22-2.361-.166-2.542-.83-.128-.467.396-.726.271-1.047-.252-.642-2.956-.737-5.124.421z"/><path fill="#fcd116" d="M105.674 53.752c-.323.173-3.274 1.811-3.184 4.798.04 1.302.666 3.125 2.068 3.75 1.743.775 3.223-.954 4.552-.032 1.04.721 1.155 2.489 1.194 3.074.059.897-.093 1.426-.174 2.009-.301 2.138.389 5.514 2.21 6.048 1.615.473 4.06-1.307 4.185-2.85.044-.56-.226-.987.068-1.504.423-.739 1.317-.454 1.723-1.048.634-.934-1.084-2.331-.548-3.57.377-.87 1.387-.555 2.488-1.76.798-.872 1.312-2.177.928-2.591-.438-.475-1.605.748-2.645.288-1.716-.763-.588-4.34-2.59-5.471-.641-.363-1.987-.69-3.058-.23-.304.13-.453.267-.847.347-.913.188-2.034-.144-2.19-.714-.11-.402.342-.627.235-.902-.216-.554-2.548-.634-4.415.363z"/><path fill="#000" d="M106.858 54.574c-.296.158-2.99 1.655-2.907 4.383.037 1.19.607 2.855 1.889 3.425 1.594.71 2.944-.87 4.158-.03.95.66 1.055 2.276 1.092 2.81.053.819-.086 1.304-.16 1.833-.274 1.952.358 5.039 2.019 5.526 1.476.432 3.71-1.194 3.823-2.603.041-.512-.206-.902.063-1.375.387-.676 1.204-.415 1.574-.958.577-.854-.991-2.129-.499-3.262.345-.795 1.267-.51 2.273-1.61.729-.796 1.199-1.989.847-2.366-.402-.434-1.466.682-2.416.26-1.568-.697-.536-3.964-2.366-4.997-.585-.332-1.816-.632-2.795-.21-.276.12-.413.244-.773.317-.834.173-1.86-.132-2.002-.653-.1-.368.314-.573.213-.824-.198-.505-2.327-.578-4.033.331z"/></g></svg>